<svg width="26" height="25" viewBox="0 0 26 25" fill="none" xmlns="http://www.w3.org/2000/svg">
<path d="M23.5408 9.86465H15.6351V1.95897C15.6351 0.988874 14.8484 0.202148 13.8783 0.202148H12.1215C11.1514 0.202148 10.3646 0.988874 10.3646 1.95897V9.86465H2.45897C1.48887 9.86465 0.702148 10.6514 0.702148 11.6215V13.3783C0.702148 14.3484 1.48887 15.1351 2.45897 15.1351H10.3646V23.0408C10.3646 24.0109 11.1514 24.7976 12.1215 24.7976H13.8783C14.8484 24.7976 15.6351 24.0109 15.6351 23.0408V15.1351H23.5408C24.5109 15.1351 25.2976 14.3484 25.2976 13.3783V11.6215C25.2976 10.6514 24.5109 9.86465 23.5408 9.86465Z" fill="#33317C"/>
</svg>
