<svg width="25" height="25" viewBox="0 0 25 25" fill="none" xmlns="http://www.w3.org/2000/svg">
<path d="M12.4375 0C5.56844 0 0 5.56844 0 12.4375C0 19.3066 5.56844 24.875 12.4375 24.875C19.3066 24.875 24.875 19.3066 24.875 12.4375C24.875 5.56844 19.3066 0 12.4375 0ZM18.3119 17.3901C18.2321 17.4837 16.3171 19.6835 12.8028 19.6835C8.55535 19.6835 5.5567 16.511 5.5567 12.3832C5.5567 8.30574 8.66628 5.19145 12.7665 5.19145C16.1245 5.19145 17.8802 7.06285 17.9533 7.14254C18.1385 7.34437 18.164 7.6458 18.0154 7.8759L16.893 9.61389C16.6899 9.92819 16.2524 9.98255 15.9785 9.72898C15.9668 9.71825 14.6481 8.53137 12.8752 8.53137C10.5624 8.53137 9.1682 10.2152 9.1682 12.347C9.1682 14.3331 10.4478 16.3436 12.8933 16.3436C14.834 16.3436 16.1671 14.9224 16.1804 14.908C16.4378 14.629 16.8855 14.6556 17.1086 14.9609L18.3396 16.6445C18.5041 16.8695 18.4926 17.178 18.3119 17.3901Z" fill="white"/>
</svg>
