<svg width="1724" height="1026" viewBox="0 0 1724 1026" fill="none" xmlns="http://www.w3.org/2000/svg">
<g filter="url(#filter0_d_24_27022)">
<path d="M615.081 0.00309934C277.627 -0.760906 104.779 139.811 32.7642 325.513C-39.3529 556.774 16.2974 897.428 247.022 965.355C474.991 1039.25 755.161 819.385 969.191 829.897C1183.22 840.408 1240.8 1033.93 1481.62 1017.01C1722.45 1000.1 1733 917.037 1733 917.037V0.00309934C1733 0.00309934 952.535 0.767105 615.081 0.00309934Z" fill="url(#paint0_linear_24_27022)"/>
</g>
<circle cx="480.5" cy="795.5" r="136.5" fill="url(#paint1_radial_24_27022)"/>
<ellipse cx="1108.5" cy="303.5" rx="98.5" ry="85.5" fill="url(#paint2_radial_24_27022)"/>
<circle cx="263.5" cy="273.5" r="43.5" fill="url(#paint3_radial_24_27022)"/>
<defs>
<filter id="filter0_d_24_27022" x="0.222656" y="0" width="1735.78" height="1025.06" filterUnits="userSpaceOnUse" color-interpolation-filters="sRGB">
<feFlood flood-opacity="0" result="BackgroundImageFix"/>
<feColorMatrix in="SourceAlpha" type="matrix" values="0 0 0 0 0 0 0 0 0 0 0 0 0 0 0 0 0 0 127 0" result="hardAlpha"/>
<feOffset dy="4"/>
<feGaussianBlur stdDeviation="1.5"/>
<feComposite in2="hardAlpha" operator="out"/>
<feColorMatrix type="matrix" values="0 0 0 0 0 0 0 0 0 0 0 0 0 0 0 0 0 0 0.160784 0"/>
<feBlend mode="normal" in2="BackgroundImageFix" result="effect1_dropShadow_24_27022"/>
<feBlend mode="normal" in="SourceGraphic" in2="effect1_dropShadow_24_27022" result="shape"/>
</filter>
<linearGradient id="paint0_linear_24_27022" x1="635.171" y1="938.899" x2="942.709" y2="938.899" gradientUnits="userSpaceOnUse">
<stop stop-color="#352975"/>
<stop offset="1" stop-color="#2084BF"/>
</linearGradient>
<radialGradient id="paint1_radial_24_27022" cx="0" cy="0" r="1" gradientUnits="userSpaceOnUse" gradientTransform="translate(372.278 632.971) scale(136.5)">
<stop stop-color="#2084BF"/>
<stop offset="1" stop-color="#352975"/>
</radialGradient>
<radialGradient id="paint2_radial_24_27022" cx="0" cy="0" r="1" gradientUnits="userSpaceOnUse" gradientTransform="translate(1030.41 201.696) scale(98.5 85.5)">
<stop stop-color="#2084BF"/>
<stop offset="1" stop-color="#352975"/>
</radialGradient>
<radialGradient id="paint3_radial_24_27022" cx="0" cy="0" r="1" gradientUnits="userSpaceOnUse" gradientTransform="translate(229.012 221.705) scale(43.5)">
<stop stop-color="#2084BF"/>
<stop offset="1" stop-color="#352975"/>
</radialGradient>
</defs>
</svg>
