<svg width="98" height="98" viewBox="0 0 98 98" fill="none" xmlns="http://www.w3.org/2000/svg">
<path fill-rule="evenodd" clip-rule="evenodd" d="M19.7037 0H78.2963C89.1851 0 98 8.81493 98 19.7037V78.2963C98 89.1854 89.1851 98 78.2963 98H19.7037C8.81493 98 0 89.1854 0 78.2963V19.7037C0 8.81493 8.81493 0 19.7037 0Z" fill="#0B66C3"/>
<path fill-rule="evenodd" clip-rule="evenodd" d="M21.9148 39.1711H32.8578V75.9185H21.9148V39.1711ZM27.3191 20.5273C30.9666 20.5273 33.939 23.4994 33.939 27.1472C33.939 30.7948 30.9666 33.7672 27.3191 33.7672C23.6712 33.7672 20.834 30.7948 20.834 27.1472C20.834 23.4994 23.6712 20.5273 27.3191 20.5273ZM39.3429 39.1711H50.1511V44.3048C52.4476 40.9275 56.2306 38.7658 60.5537 38.7658H63.526C70.4162 38.7658 75.9552 44.4399 75.9552 51.195V56.7343V63.3542V75.9185H65.1473V75.7834V72.5411V56.0588C65.0122 51.8705 62.175 48.6282 57.987 48.6282C53.7987 48.6282 50.2862 51.8705 50.1511 56.0588V70.3794V75.9185H39.3429V39.1711Z" fill="white"/>
</svg>
