<svg width="98" height="98" viewBox="0 0 98 98" fill="none" xmlns="http://www.w3.org/2000/svg">
<path fill-rule="evenodd" clip-rule="evenodd" d="M19.7037 0H78.4692C89.1854 0 98 8.81493 98 19.7037V78.2963C98 89.1854 89.1854 98 78.4692 98H19.7037C8.81464 98 0 89.1854 0 78.2963V19.7037C0 8.81493 8.81464 0 19.7037 0Z" fill="#FFFF00"/>
<path fill-rule="evenodd" clip-rule="evenodd" d="M49.4381 17.2168C52.4968 17.2168 69.5618 18.1826 68.4349 38.6285C68.4349 38.6285 73.7477 38.1456 75.5186 41.3654C75.5186 41.3654 79.5434 47.4829 68.596 51.8296C68.596 51.8296 71.0108 57.9474 79.3824 61.972C79.3824 61.972 83.0851 63.421 81.6361 66.9627C81.6361 66.9627 81.3143 68.8946 75.5186 70.9875C73.7477 71.6315 73.7477 71.6315 73.2645 72.9194C72.6206 74.5292 70.2058 76.3 64.7322 75.6561C64.7322 75.6561 62.8003 75.3342 61.1902 76.944C61.1902 76.944 56.5217 80.9689 49.4381 81.1299C42.5155 80.9689 37.6856 76.944 37.6856 76.944C36.0759 75.3342 34.305 75.6561 34.305 75.6561C28.6704 76.3 26.4164 74.5292 25.7724 72.9194C25.1284 71.6315 25.1284 71.6315 23.5187 70.9875C17.5619 68.8946 17.4008 66.9627 17.4008 66.9627C15.9521 63.421 19.4938 61.972 19.4938 61.972C27.8654 57.9474 30.4412 51.8296 30.4412 51.8296C19.4938 47.4829 23.5187 41.3654 23.5187 41.3654C25.2895 38.1456 30.4412 38.6285 30.4412 38.6285C29.4751 18.1826 46.5401 17.2168 49.4381 17.2168Z" fill="black"/>
<path fill-rule="evenodd" clip-rule="evenodd" d="M49.4381 20.9199C66.503 22.2079 65.054 34.4429 64.7322 44.2635C64.7322 44.2635 65.698 44.5853 69.24 42.6537C69.24 42.6537 71.1719 41.3658 72.6206 42.8145C72.6206 42.8145 74.3914 44.7464 70.8497 46.6783L65.054 50.8642C65.054 50.8642 65.054 59.2355 78.5773 65.5141C78.5773 65.5141 78.2552 66.9631 71.6548 68.251C71.6548 68.251 70.5279 68.5731 69.8839 71.149C69.4007 72.7588 66.1812 72.1148 64.5711 72.1148C64.5711 72.1148 61.1902 72.1148 57.6486 75.1736C57.6486 75.1736 54.1069 77.4276 49.4381 77.7494C44.7693 77.4276 41.3886 75.1736 41.3886 75.1736C37.8467 72.1148 34.305 72.1148 34.305 72.1148C32.856 72.1148 29.4751 72.7588 29.1533 71.149C28.5093 68.5731 27.2214 68.251 27.2214 68.251C20.6207 66.9631 20.2988 65.5141 20.2988 65.5141C33.8218 59.2355 33.8218 50.8642 33.8218 50.8642L28.0264 46.6783C24.6455 44.7464 26.4164 42.8145 26.4164 42.8145C27.8654 41.3658 29.7973 42.6537 29.7973 42.6537C33.3389 44.5853 34.305 44.2635 34.305 44.2635C33.8218 34.4429 32.5342 22.2079 49.4381 20.9199Z" fill="white"/>
</svg>
