<svg width="98" height="98" viewBox="0 0 98 98" fill="none" xmlns="http://www.w3.org/2000/svg">
<path fill-rule="evenodd" clip-rule="evenodd" d="M19.669 0H78.331C89.028 0 98 8.81464 98 19.5308V78.2963C98 89.1851 89.028 98 78.331 98H19.669C8.79941 98 0 89.1851 0 78.2963V19.5308C0 8.81464 8.79941 0 19.669 0Z" fill="black"/>
<path fill-rule="evenodd" clip-rule="evenodd" d="M43.8022 42.2958H43.4035V50.5511C42.4729 50.2851 41.6755 50.1517 40.745 50.1517C35.6942 50.1517 31.7068 54.1465 31.7068 59.0729C31.7068 62.4018 33.7003 65.4641 36.4916 66.9291C35.4283 65.4641 34.8968 63.6001 34.8968 61.736C34.8968 56.8094 38.8842 52.8149 43.8022 52.8149C44.7324 52.8149 45.663 52.9479 46.4604 53.2143V42.5622C45.663 42.4288 44.7324 42.2958 43.8022 42.2958ZM29.5801 74.918C33.1688 78.6464 38.2196 81.0432 43.8022 81.0432C54.5684 81.0432 63.341 72.3882 63.341 61.736V39.899C67.3285 43.4941 72.5123 45.2251 77.829 44.8256V34.3065C76.7657 34.5729 75.7024 34.5729 74.7721 34.3065V42.1628C69.4551 42.5622 64.1384 40.8312 60.151 37.2361V59.0729C60.151 69.7253 51.5115 78.38 40.745 78.38C36.6247 78.38 32.7701 77.0484 29.5801 74.918ZM67.1956 29.9127C64.6702 27.1164 63.2082 23.3883 63.341 19.793H60.4169C61.0815 23.7877 63.7397 27.7822 67.1956 29.9127Z" fill="#FF2E56"/>
<path fill-rule="evenodd" clip-rule="evenodd" d="M40.7458 39.6317C29.9797 39.6317 21.207 48.2868 21.207 59.072C21.207 65.5963 24.5299 71.4551 29.5809 74.9171C26.3909 71.4551 24.397 66.7948 24.397 61.7352C24.397 51.216 32.771 42.5613 43.4043 42.2949V39.8981C42.4738 39.7651 41.6764 39.6317 40.7458 39.6317ZM74.773 34.3057V31.6428C72.1145 32.1752 69.4563 31.3764 67.1965 29.9118C69.3232 32.3083 71.8486 33.9062 74.773 34.3057ZM60.4177 19.7921C60.2849 18.8599 60.1518 18.0611 60.1518 17.1289H49.6516V41.8952V59.072C49.6516 63.9986 45.6638 67.9931 40.7458 67.9931C39.151 67.9931 37.8217 67.5937 36.4925 66.9279C38.2205 69.1917 40.8789 70.6563 43.803 70.6563C48.8538 70.6563 52.8416 66.6618 52.8416 61.7352V44.5584V19.7921H60.4177Z" fill="#23F1E7"/>
<path fill-rule="evenodd" clip-rule="evenodd" d="M29.5804 74.918C32.7704 77.0484 36.625 78.3801 40.7456 78.3801C51.5118 78.3801 60.1516 69.725 60.1516 59.0729V37.2358C64.139 40.8312 69.4557 42.5622 74.7724 42.1625V34.3065C71.8483 33.9071 69.3229 32.3095 67.1959 29.9127C63.7403 27.7822 61.0818 23.7877 60.4172 19.793H52.841V44.5593V61.736C52.841 66.6627 48.8533 70.6572 43.8025 70.6572C40.8784 70.6572 38.2199 69.1925 36.4922 66.9288C33.7009 65.4641 31.707 62.4015 31.707 59.0729C31.707 54.1462 35.6945 50.1517 40.7456 50.1517C41.6758 50.1517 42.4732 50.2848 43.4038 50.5511V42.2958C32.7704 42.5622 24.3965 51.2169 24.3965 61.736C24.3965 66.7957 26.3904 71.456 29.5804 74.918Z" fill="white"/>
</svg>
