<svg width="98" height="98" viewBox="0 0 98 98" fill="none" xmlns="http://www.w3.org/2000/svg">
<path fill-rule="evenodd" clip-rule="evenodd" d="M19.7037 0H78.4692C89.1854 0 98 8.81464 98 19.5308V78.2963C98 89.1851 89.1854 98 78.4692 98H19.7037C8.81464 98 0 89.1851 0 78.2963V19.5308C0 8.81464 8.81464 0 19.7037 0Z" fill="black"/>
<path d="M82.1622 82.506L62.3375 82.506L16 15.0723H35.4774L82.1622 82.506ZM24.0117 19.5335L64.6809 78.5171H74.2489L32.9671 19.5335L24.0117 19.5335Z" fill="white"/>
<path d="M16 82.5037L41.8008 52.418L44.3447 56.325L21.7793 82.5037H16Z" fill="white"/>
<path d="M79.71 15L53.9072 45.0847L51.3652 41.178L73.9307 15H79.71Z" fill="white"/>
</svg>
