<svg width="98" height="98" viewBox="0 0 98 98" fill="none" xmlns="http://www.w3.org/2000/svg">
<rect width="98" height="98" fill="url(#paint0_linear_1_12114)"/>
<path fill-rule="evenodd" clip-rule="evenodd" d="M37.6446 34.4C39.4288 33.2645 40.5645 34.0755 41.2131 35.8599L42.8353 40.0774C42.8353 40.0774 43.971 42.3485 41.0511 44.6197C40.5645 44.9441 40.5645 44.9441 40.7267 45.7551C41.3754 47.7017 43.971 53.5414 52.244 58.0837C53.0549 58.5701 53.2172 58.5701 54.0284 57.9214C54.6771 57.2724 55.4883 56.4615 56.137 55.8125C57.597 54.5148 58.4082 54.0281 59.7059 55.0016C60.6793 55.6503 61.6525 56.4615 62.6257 57.1102C63.5992 57.9214 65.2213 58.8946 63.5992 60.8412L62.1392 62.6256C60.0303 65.221 58.246 65.3832 55.4883 64.7342C44.9442 61.9767 37.1578 54.5148 33.7513 43.9707C32.6159 39.9154 34.238 36.5089 37.6446 34.4ZM48.9997 17.043C66.6812 17.043 80.9561 31.3179 80.9561 48.9994C80.9561 66.6809 66.6812 80.9558 48.9997 80.9558C44.1332 80.9558 39.591 79.9826 35.5357 78.036L18.5029 80.9558L20.774 64.0855L20.6118 63.7611C18.3406 59.3813 17.043 54.3526 17.043 48.9994C17.043 31.3179 31.3179 17.043 48.9997 17.043ZM28.8849 73.8185L33.4268 73.0073L36.1844 72.5208C40.0777 74.6294 44.2955 75.7652 48.9997 75.7652C63.7614 75.7652 75.7652 63.7611 75.7652 48.9994C75.7652 34.2377 63.7614 22.2336 48.9997 22.2336C34.238 22.2336 22.2339 34.2377 22.2339 48.9994C22.2339 54.3526 23.8561 59.2191 26.4514 63.4366L26.1273 65.87L25.4783 70.7364L24.9915 74.4675L28.8849 73.8185Z" fill="white"/>
<defs>
<linearGradient id="paint0_linear_1_12114" x1="0.294991" y1="98" x2="7.03314e-08" y2="98" gradientUnits="userSpaceOnUse">
<stop stop-color="#42EF62"/>
<stop offset="0.995169" stop-color="#19CB3C"/>
<stop offset="1" stop-color="#19CB3C"/>
</linearGradient>
</defs>
</svg>
