<svg width="98" height="98" viewBox="0 0 98 98" fill="none" xmlns="http://www.w3.org/2000/svg">
<path fill-rule="evenodd" clip-rule="evenodd" d="M19.7037 0H78.4692C89.1854 0 98 8.81464 98 19.5308V78.2963C98 89.1851 89.1854 98 78.4692 98H19.7037C8.81464 98 0 89.1851 0 78.2963V19.5308C0 8.81464 8.81464 0 19.7037 0Z" fill="white"/>
<path fill-rule="evenodd" clip-rule="evenodd" d="M30.1576 27.2804C36.3032 26.7887 43.5549 26.543 49.0857 26.543C54.6165 26.543 61.7453 26.7887 68.0139 27.2804C75.2653 27.8949 78.9527 29.1241 79.9359 36.3759C80.4277 39.6943 80.6734 44.2419 80.6734 48.9125C80.6734 53.5831 80.4277 58.2537 79.9359 61.4493C78.9527 68.8238 75.2653 69.93 68.0139 70.5448C61.7453 71.1592 54.6165 71.2822 49.0857 71.2822C43.5549 71.2822 36.3032 71.1592 30.1576 70.5448C22.9061 69.93 19.0957 68.8238 18.1125 61.4493C17.7438 58.2537 17.498 53.5831 17.498 48.9125C17.498 44.2419 17.7438 39.6943 18.1125 36.3759C19.0957 29.1241 22.9061 27.8949 30.1576 27.2804Z" fill="#FE0000"/>
<path fill-rule="evenodd" clip-rule="evenodd" d="M42.6953 39.4492L59.1653 48.9131L42.6953 58.5001V39.4492Z" fill="white"/>
</svg>
